<svg xmlns="http://www.w3.org/2000/svg" viewBox="0 0 500 500"><g id="freepik--Floor--inject-13"><polygon points="249.73 457.89 249.73 464.84 11.23 327.15 11.23 320.2 249.73 457.89" style="fill:#e0e0e0"></polygon><polygon points="488.22 327.14 249.73 464.84 249.73 457.89 488.22 320.2 488.22 327.14" style="fill:#ebebeb"></polygon><polygon points="446.04 295.84 249.73 409.18 53.42 295.84 11.23 320.2 249.73 457.89 488.22 320.2 446.04 295.84" style="fill:#f5f5f5"></polygon><polygon points="259.95 403.1 302.14 427.45 299.19 429.15 256.82 404.9 259.95 403.1" style="fill:#e0e0e0"></polygon><polygon points="446.03 295.84 374.68 337.05 371.54 338.85 371.23 339.03 336.97 358.81 336.97 358.82 336.96 358.82 333.83 360.62 333.82 360.62 298.54 381.01 295.4 382.81 260.12 403.19 256.98 405 249.73 409.19 246.59 407.38 53.42 295.84 91.89 273.63 216.76 201.53 249.73 182.5 446.03 295.84" style="fill:#F8182E"></polygon><polygon points="446.03 295.84 374.68 337.05 371.54 338.85 371.23 339.03 336.97 358.81 336.97 358.82 336.96 358.82 333.83 360.62 333.82 360.62 298.54 381.01 295.4 382.81 260.12 403.19 256.98 405 249.73 409.19 246.59 407.38 53.42 295.84 91.89 273.63 216.76 201.53 249.73 182.5 446.03 295.84" style="fill:#fff;opacity:0.30000000000000004"></polygon><polygon points="375.01 340.86 340.64 360.94 336.81 358.72 333.82 357 306.11 341 303.14 339.29 281.49 326.79 316.07 306.82 337.72 319.32 340.84 321.12 368.41 337.05 371.54 338.85 375.01 340.86" style="fill:#f5f5f5"></polygon><polygon points="446.04 295.84 446.04 295.84 488.22 320.2 446.04 295.84" style="fill:#f5f5f5"></polygon><polygon points="298.46 380.96 340.64 405.31 337.69 407.01 295.32 382.77 298.46 380.96" style="fill:#e0e0e0"></polygon><polygon points="246.6 407.38 204.41 431.73 207.36 433.43 249.73 409.19 246.6 407.38" style="fill:#e0e0e0"></polygon><polygon points="207.72 384.98 165.54 409.33 168.49 411.04 210.86 386.79 207.72 384.98" style="fill:#e0e0e0"></polygon><polygon points="168.85 362.58 126.67 386.93 129.62 388.64 171.99 364.39 168.85 362.58" style="fill:#e0e0e0"></polygon><polygon points="129.98 340.18 87.8 364.53 90.75 366.24 133.12 341.99 129.98 340.18" style="fill:#e0e0e0"></polygon><polygon points="91.11 317.78 48.93 342.13 51.88 343.84 94.24 319.59 91.11 317.78" style="fill:#e0e0e0"></polygon><polygon points="374.68 337.04 416.86 361.4 413.91 363.1 371.54 338.85 374.68 337.04" style="fill:#e0e0e0"></polygon><polygon points="413.18 314.9 455.36 339.26 452.42 340.96 410.05 316.71 413.18 314.9" style="fill:#e0e0e0"></polygon><polygon points="336.96 358.82 379.15 383.17 376.2 384.88 333.83 360.63 336.96 358.82" style="fill:#e0e0e0"></polygon><polygon points="371.54 338.85 336.81 358.72 333.82 357 368.41 337.05 371.54 338.85" style="fill:#e0e0e0"></polygon><polygon points="340.84 321.12 306.11 341 303.14 339.29 337.72 319.32 340.84 321.12" style="fill:#e0e0e0"></polygon></g><g id="freepik--Shadows--inject-13"><g style="opacity:0.1"><polygon points="357.61 282.85 354.44 284.55 319.85 304.51 232.62 354.88 91.89 273.63 216.76 201.53 357.61 282.85"></polygon></g><ellipse cx="284.92" cy="419.37" rx="22.53" ry="13.01" style="opacity:0.1"></ellipse><ellipse cx="218.13" cy="421.52" rx="22.53" ry="13.01" style="opacity:0.1"></ellipse><g style="opacity:0.1"><path d="M410.56,287.53c3,1.75,3,4.57,0,6.31a12.1,12.1,0,0,1-10.93,0c-3-1.74-3-4.56,0-6.31A12.1,12.1,0,0,1,410.56,287.53Z"></path></g><g style="opacity:0.1"><path d="M378.75,327c3,1.75,3,4.57,0,6.31a12.07,12.07,0,0,1-10.92,0c-3-1.74-3-4.56,0-6.31A12.07,12.07,0,0,1,378.75,327Z"></path></g><g style="opacity:0.1"><path d="M102.2,300.78c3,1.74,3,4.57,0,6.31a12.1,12.1,0,0,1-10.93,0c-3-1.74-3-4.57,0-6.31A12.1,12.1,0,0,1,102.2,300.78Z"></path></g></g><g id="freepik--House--inject-13"><polygon points="108.08 198.09 108.08 275.73 232.71 347.68 232.71 242.26 132.11 183.81 108.08 198.09" style="fill:#ebebeb"></polygon><polygon points="350.34 174.35 350.34 279.76 308.81 303.73 274.23 323.7 232.71 347.68 232.71 242.27 294.22 161.17 350.34 174.35" style="fill:#fafafa"></polygon><path d="M308.81,228.82v74.91l-34.58,20V248.79A42.19,42.19,0,0,1,278.58,231c.24-.5.48-1,.74-1.47,3.11-6,7.44-11,12.2-13.76a13.85,13.85,0,0,1,6.86-2.08C304.52,213.66,308.81,219.34,308.81,228.82Z" style="fill:#F8182E"></path><path d="M308.81,228.82v74.91l-34.58,20V248.79A42.19,42.19,0,0,1,278.58,231c.24-.5.48-1,.74-1.47,3.11-6,7.44-11,12.2-13.76a13.85,13.85,0,0,1,6.86-2.08C304.52,213.66,308.81,219.34,308.81,228.82Z" style="opacity:0.30000000000000004"></path><path d="M305.77,226.45l-9.42,5.43-2.76,1.6-1.25.72-1.63,1-1.47.84-1.59.92L277,243.06a39.1,39.1,0,0,1,3.26-10.89,1.17,1.17,0,0,1,.05-.11c.21-.47.44-.93.67-1.37a.29.29,0,0,1,.06-.11c.36-.71.74-1.39,1.14-2.06a31.18,31.18,0,0,1,7.56-8.82c.32-.23.64-.46,1-.67s.44-.3.67-.44l.42-.25c.19-.11.37-.21.54-.29,3.41-1.83,6.54-1.94,9-.66a5.71,5.71,0,0,1,.91.56l.45.33.12.11a7.81,7.81,0,0,1,.6.79h0A15.57,15.57,0,0,1,305.77,226.45Z" style="fill:#fafafa"></path><path d="M306.82,227.51,295,234.35l-4.26,2.46-.12.07-1.58.91-12.21,7.05c.05-.59.12-1.19.2-1.78l10.65-6.15,1.59-.92,1.47-.84,1.63-1,1.25-.72,2.76-1.6,9.42-5.43a15.57,15.57,0,0,0-2.32-7.26h0a7.81,7.81,0,0,0-.6-.79l0-.07a8.09,8.09,0,0,1,.74.7h0C305.31,220.91,306.48,223.79,306.82,227.51Z" style="fill:#F8182E"></path><path d="M306.82,227.51,295,234.35l-4.26,2.46-.12.07-1.58.91-12.21,7.05c.05-.59.12-1.19.2-1.78l10.65-6.15,1.59-.92,1.47-.84,1.63-1,1.25-.72,2.76-1.6,9.42-5.43a15.57,15.57,0,0,0-2.32-7.26h0a7.81,7.81,0,0,0-.6-.79l0-.07a8.09,8.09,0,0,1,.74.7h0C305.31,220.91,306.48,223.79,306.82,227.51Z" style="opacity:0.6000000000000001"></path><path d="M289.63,236.39l-1.48.85-.1.06-.51-.33-.85-.55-6.43-4.25a1.17,1.17,0,0,1,.05-.11c.21-.47.44-.93.67-1.37l7.3,4.81.85.55Z" style="fill:#F8182E"></path><path d="M289.63,236.39l-1.48.85-.1.06-.51-.33-.85-.55-6.43-4.25a1.17,1.17,0,0,1,.05-.11c.21-.47.44-.93.67-1.37l7.3,4.81.85.55Z" style="opacity:0.6000000000000001"></path><path d="M302.72,218.28l-.14.26-.09.16-7.1,12.69-.86,1.55-.52.92-.94.54-.73.43-1.63.94-1,.55V219.7c.32-.23.64-.46,1-.67s.44-.3.67-.44v16.63l.38-.69.58-1,.29-.51,8.73-15.6a5.71,5.71,0,0,1,.91.56Z" style="fill:#F8182E"></path><line x1="296.35" y1="231.88" x2="305.77" y2="226.45" style="opacity:0.6000000000000001"></line><path d="M302.72,218.28l-.14.26-.09.16-7.1,12.69-.86,1.55-.52.92-.94.54-.73.43-1.63.94-1,.55V219.7c.32-.23.64-.46,1-.67s.44-.3.67-.44v16.63l.38-.69.58-1,.29-.51,8.73-15.6a5.71,5.71,0,0,1,.91.56Z" style="opacity:0.6000000000000001"></path><path d="M290.59,236.88l-1.58.91-.86-.55-.5-.33-7.34-4.85c.21-.47.44-.93.67-1.37l-.45-.3.06-.11.45.3,8.2,5.41.5.33Z" style="fill:#F8182E"></path><path d="M303.29,218.79c-.15-.14-.3-.28-.45-.4a.18.18,0,0,0,0-.07Z" style="fill:#455a64"></path><path d="M303.53,219l-.09.16-7.09,12.7L295,234.35l-4.26,2.46V219c.22-.16.44-.3.67-.44l.42-.25c.19-.11.37-.21.54-.29v17.66l.73-1.31.52-.92L302.27,218l.45.33.12.11,0-.07A8.09,8.09,0,0,1,303.53,219Z" style="fill:#F8182E"></path><path d="M303.53,219l-.09.16-7.09,12.7L295,234.35l-4.26,2.46V219c.22-.16.44-.3.67-.44l.42-.25c.19-.11.37-.21.54-.29v17.66l.73-1.31.52-.92L302.27,218l.45.33.12.11,0-.07A8.09,8.09,0,0,1,303.53,219Z" style="opacity:0.30000000000000004"></path><path d="M290.59,236.88l-1.58.91-.86-.55-.5-.33-7.34-4.85c.21-.47.44-.93.67-1.37l-.45-.3.06-.11.45.3,8.2,5.41.5.33Z" style="opacity:0.30000000000000004"></path><path d="M279,278.42a.33.33,0,0,1-.13,0,.28.28,0,0,1-.13-.23V252a.28.28,0,0,1,.13-.23l10.9-6.29a.24.24,0,0,1,.26,0,.27.27,0,0,1,.14.23v26.13a.29.29,0,0,1-.14.23l-10.89,6.29A.37.37,0,0,1,279,278.42Zm.27-26.25v25.52l10.36-6V246.19Zm10.63,19.69Z" style="fill:#F8182E"></path><path d="M293.14,270.27a.22.22,0,0,1-.13,0,.25.25,0,0,1-.13-.23V243.88a.28.28,0,0,1,.13-.24l10.9-6.29a.3.3,0,0,1,.26,0,.27.27,0,0,1,.14.23v26.13a.24.24,0,0,1-.14.23l-10.89,6.29A.23.23,0,0,1,293.14,270.27Zm.27-26.24v25.51l10.36-6V238.05ZM304,263.71h0Z" style="fill:#F8182E"></path><path d="M279,310a.31.31,0,0,1-.13,0,.28.28,0,0,1-.13-.23V283.65a.25.25,0,0,1,.13-.23l10.9-6.29a.24.24,0,0,1,.26,0,.26.26,0,0,1,.14.23v26.12a.29.29,0,0,1-.14.24L279.13,310A.35.35,0,0,1,279,310Zm.27-26.24v25.51l10.36-6V277.82Zm10.63,19.68Z" style="fill:#F8182E"></path><path d="M293.14,301.9a.22.22,0,0,1-.13,0,.26.26,0,0,1-.13-.23V275.5a.28.28,0,0,1,.13-.23l10.9-6.29a.24.24,0,0,1,.26,0,.27.27,0,0,1,.14.23v26.13a.27.27,0,0,1-.14.23l-10.89,6.29A.23.23,0,0,1,293.14,301.9Zm.27-26.24v25.51l10.36-6V269.67ZM304,295.34h0Z" style="fill:#F8182E"></path><path d="M303.23,271.4a1.07,1.07,0,0,1-.54-2l3.48-2-.9-.52a1.06,1.06,0,1,1,1.06-1.84l2.51,1.44a1.07,1.07,0,0,1,0,1.85l-5.08,2.93A1,1,0,0,1,303.23,271.4Z" style="fill:#263238"></path><polygon points="350.33 272.02 343.56 275.96 343.56 268.21 350.33 264.27 350.33 272.02" style="fill:#e0e0e0"></polygon><polygon points="350.33 256.52 343.56 260.46 343.56 252.71 350.33 248.77 350.33 256.52" style="fill:#e0e0e0"></polygon><polygon points="350.33 241.03 343.56 244.97 343.56 237.22 350.33 233.28 350.33 241.03" style="fill:#e0e0e0"></polygon><polygon points="350.33 225.53 343.56 229.47 343.56 221.72 350.33 217.78 350.33 225.53" style="fill:#e0e0e0"></polygon><polygon points="350.33 210.04 343.56 213.98 343.56 206.23 350.33 202.29 350.33 210.04" style="fill:#e0e0e0"></polygon><polygon points="350.33 194.54 343.56 198.48 343.56 190.73 350.33 186.79 350.33 194.54" style="fill:#e0e0e0"></polygon><polygon points="350.33 179.05 343.56 182.99 343.56 175.24 350.33 171.3 350.33 179.05" style="fill:#e0e0e0"></polygon><polygon points="239.48 335.99 232.71 339.93 232.71 332.18 239.48 328.24 239.48 335.99" style="fill:#e0e0e0"></polygon><polygon points="239.48 320.5 232.71 324.43 232.71 316.69 239.48 312.75 239.48 320.5" style="fill:#e0e0e0"></polygon><polygon points="239.48 305 232.71 308.94 232.71 301.19 239.48 297.25 239.48 305" style="fill:#e0e0e0"></polygon><polygon points="239.48 289.5 232.71 293.44 232.71 285.7 239.48 281.76 239.48 289.5" style="fill:#e0e0e0"></polygon><polygon points="239.48 274.01 232.71 277.95 232.71 270.2 239.48 266.26 239.48 274.01" style="fill:#e0e0e0"></polygon><polygon points="239.48 258.52 232.71 262.45 232.71 254.71 239.48 250.77 239.48 258.52" style="fill:#e0e0e0"></polygon><polygon points="239.48 243.02 232.71 246.96 232.71 239.21 239.48 235.27 239.48 243.02" style="fill:#e0e0e0"></polygon><polygon points="225.93 328.24 232.71 332.18 232.71 324.43 225.93 320.5 225.93 328.24" style="fill:#e0e0e0"></polygon><polygon points="225.93 343.74 232.71 347.68 232.71 339.93 225.93 335.99 225.93 343.74" style="fill:#e0e0e0"></polygon><polygon points="225.93 312.75 232.71 316.69 232.71 308.94 225.93 305 225.93 312.75" style="fill:#e0e0e0"></polygon><polygon points="225.93 297.25 232.71 301.19 232.71 293.44 225.93 289.5 225.93 297.25" style="fill:#e0e0e0"></polygon><polygon points="225.93 281.76 232.71 285.7 232.71 277.95 225.93 274.01 225.93 281.76" style="fill:#e0e0e0"></polygon><polygon points="225.93 266.26 232.71 270.2 232.71 262.45 225.93 258.52 225.93 266.26" style="fill:#e0e0e0"></polygon><polygon points="225.93 250.77 232.71 254.71 232.71 246.96 225.93 243.02 225.93 250.77" style="fill:#e0e0e0"></polygon><polygon points="225.93 235.27 232.71 239.21 232.71 231.47 225.93 227.53 225.93 235.27" style="fill:#e0e0e0"></polygon><polygon points="108.08 260.23 114.86 264.17 114.86 256.42 108.08 252.48 108.08 260.23" style="fill:#e0e0e0"></polygon><polygon points="108.08 275.73 114.86 279.66 114.86 271.92 108.08 267.98 108.08 275.73" style="fill:#e0e0e0"></polygon><polygon points="108.08 244.74 114.86 248.67 114.86 240.93 108.08 236.99 108.08 244.74" style="fill:#e0e0e0"></polygon><polygon points="108.08 229.24 114.86 233.18 114.86 225.43 108.08 221.49 108.08 229.24" style="fill:#e0e0e0"></polygon><polygon points="108.08 213.75 114.86 217.69 114.86 209.94 108.08 206 108.08 213.75" style="fill:#e0e0e0"></polygon><polygon points="158.79 247.66 158.79 282.53 135.59 269.13 135.59 234.25 158.79 247.66" style="fill:#fafafa"></polygon><polygon points="136.84 252.28 158.79 264.95 158.79 247.66 136.84 234.98 136.84 252.28" style="fill:#F8182E"></polygon><polygon points="136.84 252.28 158.79 264.95 158.79 247.66 136.84 234.98 136.84 252.28" style="fill:#fff;opacity:0.6000000000000001"></polygon><polygon points="137.39 268.07 137.39 253.32 158.79 265.67 158.79 263.88 137.39 251.52 137.39 235.29 135.58 234.25 135.58 269.13 158.79 282.53 158.79 280.43 137.39 268.07" style="fill:#F8182E"></polygon><polygon points="137.39 268.07 137.39 253.32 158.79 265.67 158.79 263.88 137.39 251.52 137.39 235.29 135.58 234.25 135.58 269.13 158.79 282.53 158.79 280.43 137.39 268.07" style="opacity:0.2"></polygon><polygon points="205.2 274.46 205.2 309.33 182 295.94 182 261.06 205.2 274.46" style="fill:#fafafa"></polygon><polygon points="183.25 279.08 205.2 291.75 205.2 274.46 183.25 261.78 183.25 279.08" style="fill:#F8182E"></polygon><line x1="158.79" y1="247.66" x2="136.84" y2="234.98" style="fill:#fff;opacity:0.5"></line><polygon points="183.25 279.08 205.2 291.75 205.2 274.46 183.25 261.78 183.25 279.08" style="fill:#fff;opacity:0.6000000000000001"></polygon><polygon points="183.8 294.88 183.8 280.12 205.2 292.48 205.2 290.69 183.8 278.33 183.8 262.1 182 261.06 182 295.93 205.21 309.33 205.21 307.24 183.8 294.88" style="fill:#F8182E"></polygon><polygon points="183.8 294.88 183.8 280.12 205.2 292.48 205.2 290.69 183.8 278.33 183.8 262.1 182 261.06 182 295.93 205.21 309.33 205.21 307.24 183.8 294.88" style="opacity:0.2"></polygon><polygon points="314.73 234.25 314.73 269.12 337.93 255.72 337.93 220.84 314.73 234.25" style="fill:#fafafa"></polygon><polygon points="336.67 238.87 314.73 251.54 314.73 234.25 336.67 221.57 336.67 238.87" style="fill:#F8182E"></polygon><polygon points="336.67 238.87 314.73 251.54 314.73 234.25 336.67 221.57 336.67 238.87" style="fill:#fff;opacity:0.8"></polygon><polygon points="336.13 254.67 336.13 221.89 337.93 220.85 337.93 255.72 314.72 269.12 314.72 267.03 336.13 254.67" style="fill:#F8182E"></polygon><polygon points="314.73 250.47 314.73 252.27 337.5 239.12 337.5 237.32 314.73 250.47" style="fill:#F8182E"></polygon><polygon points="245.11 274.46 245.11 309.33 268.31 295.94 268.31 261.06 245.11 274.46" style="fill:#fafafa"></polygon><polygon points="267.06 279.08 245.11 291.75 245.11 274.46 267.06 261.78 267.06 279.08" style="fill:#F8182E"></polygon><polygon points="267.06 279.08 245.11 291.75 245.11 274.46 267.06 261.78 267.06 279.08" style="fill:#fff;opacity:0.8"></polygon><polygon points="266.51 294.88 266.51 262.1 268.32 261.06 268.32 295.93 245.11 309.33 245.11 307.24 266.51 294.88" style="fill:#F8182E"></polygon><polygon points="245.11 290.69 245.11 292.48 267.89 279.33 267.89 277.54 245.11 290.69" style="fill:#F8182E"></polygon><polygon points="209.84 269.12 220.94 261.34 293.14 168.72 358.28 183.38 366.02 178.94 292.5 161.77 209.84 269.12" style="fill:#455a64"></polygon><polygon points="292.5 161.77 175.18 95.82 93.1 201.73 209.84 269.12 292.5 161.77" style="fill:#263238"></polygon><polygon points="292.5 161.77 366.02 178.94 248.45 112.99 175.18 95.82 292.5 161.77" style="fill:#37474f"></polygon></g><g id="freepik--Plants--inject-13"><path d="M124.07,310.91l-4.17,2.42a32.46,32.46,0,0,0,.94-13.47,12.87,12.87,0,0,0-1.7-4.5c-.32-.68-2.84-4.9-.62-6.84s7.4,1.92,7.17,12.33A40.38,40.38,0,0,1,124.07,310.91Z" style="fill:#F8182E"></path><path d="M124.07,310.91l-4.17,2.42a32.46,32.46,0,0,0,.94-13.47,12.87,12.87,0,0,0-1.7-4.5c-.32-.68-2.84-4.9-.62-6.84s7.4,1.92,7.17,12.33A40.38,40.38,0,0,1,124.07,310.91Z" style="opacity:0.5"></path><path d="M122.14,312.24h-.08a.22.22,0,0,1-.12-.27,34.66,34.66,0,0,0,1.48-11.3c-.08-6.9-3.68-10.56-3.71-10.59a.22.22,0,0,1,0-.3.21.21,0,0,1,.29,0s3.76,3.81,3.84,10.88a35.49,35.49,0,0,1-1.51,11.46A.21.21,0,0,1,122.14,312.24Z" style="fill:#fff"></path><path d="M120.84,312.8,114,316.86s-3.16-.47-2.92-3.44,1.52-3.67-.07-5-2-1.4-1.93-2.67a3.67,3.67,0,0,1,1.34-2.35,2.64,2.64,0,0,0,.74-3.11c-.8-1.54-1.87-3-.28-3.74,1-.42,2.56.11,3.62,1.23a7,7,0,0,0,3,2.21c1,.26,3.11.28,3,2s-.52,2.34-.1,3.11C121.13,306.59,124.52,307.37,120.84,312.8Z" style="fill:#F8182E"></path><path d="M120.84,312.8,114,316.86s-3.16-.47-2.92-3.44,1.52-3.67-.07-5-2-1.4-1.93-2.67a3.67,3.67,0,0,1,1.34-2.35,2.64,2.64,0,0,0,.74-3.11c-.8-1.54-1.87-3-.28-3.74,1-.42,2.56.11,3.62,1.23a7,7,0,0,0,3,2.21c1,.26,3.11.28,3,2s-.52,2.34-.1,3.11C121.13,306.59,124.52,307.37,120.84,312.8Z" style="opacity:0.2"></path><path d="M118,314.66h0a.2.2,0,0,1-.19-.22c0-.1.74-10.19-6.26-16.81a.21.21,0,0,1,0-.29.22.22,0,0,1,.3,0c7.14,6.75,6.39,17,6.38,17.14A.21.21,0,0,1,118,314.66Z" style="fill:#fff"></path><path d="M116.8,305.86h0a.21.21,0,0,1-.19-.23,6.12,6.12,0,0,1,2.26-4.39.22.22,0,0,1,.29.05.21.21,0,0,1,0,.29,5.87,5.87,0,0,0-2.08,4.08A.22.22,0,0,1,116.8,305.86Z" style="fill:#fff"></path><path d="M117.31,307.61a.2.2,0,0,1-.16-.07s-1.74-1.87-5.67-1.33a.21.21,0,0,1-.24-.17.21.21,0,0,1,.18-.24c4.16-.57,6,1.38,6,1.46a.22.22,0,0,1,0,.3A.24.24,0,0,1,117.31,307.61Z" style="fill:#fff"></path><path d="M177.9,341.9l-4.17,2.43a32.49,32.49,0,0,0,.94-13.48,12.87,12.87,0,0,0-1.7-4.5c-.32-.68-2.84-4.89-.63-6.84s7.41,1.92,7.18,12.33A40.26,40.26,0,0,1,177.9,341.9Z" style="fill:#F8182E"></path><path d="M177.9,341.9l-4.17,2.43a32.49,32.49,0,0,0,.94-13.48,12.87,12.87,0,0,0-1.7-4.5c-.32-.68-2.84-4.89-.63-6.84s7.41,1.92,7.18,12.33A40.26,40.26,0,0,1,177.9,341.9Z" style="opacity:0.5"></path><path d="M176,343.24h-.08a.22.22,0,0,1-.12-.27,34.69,34.69,0,0,0,1.48-11.31c-.08-6.89-3.68-10.55-3.71-10.59a.22.22,0,0,1,0-.3.21.21,0,0,1,.29,0s3.76,3.81,3.84,10.89a35.32,35.32,0,0,1-1.51,11.45A.2.2,0,0,1,176,343.24Z" style="fill:#fff"></path><path d="M174.67,343.8l-6.89,4.05s-3.16-.47-2.92-3.43,1.52-3.67-.07-5-2-1.39-1.93-2.67a3.61,3.61,0,0,1,1.34-2.34,2.66,2.66,0,0,0,.74-3.12c-.8-1.54-1.87-3-.28-3.74,1-.42,2.56.11,3.62,1.24a6.86,6.86,0,0,0,2.95,2.2c1,.26,3.11.28,3,2s-.52,2.33-.1,3.1C175,337.59,178.35,338.37,174.67,343.8Z" style="fill:#F8182E"></path><path d="M174.67,343.8l-6.89,4.05s-3.16-.47-2.92-3.43,1.52-3.67-.07-5-2-1.39-1.93-2.67a3.61,3.61,0,0,1,1.34-2.34,2.66,2.66,0,0,0,.74-3.12c-.8-1.54-1.87-3-.28-3.74,1-.42,2.56.11,3.62,1.24a6.86,6.86,0,0,0,2.95,2.2c1,.26,3.11.28,3,2s-.52,2.33-.1,3.1C175,337.59,178.35,338.37,174.67,343.8Z" style="opacity:0.2"></path><path d="M171.86,345.66h0a.21.21,0,0,1-.19-.23c0-.1.74-10.19-6.26-16.8a.21.21,0,0,1,0-.3.21.21,0,0,1,.29,0c7.15,6.75,6.4,17,6.39,17.13A.22.22,0,0,1,171.86,345.66Z" style="fill:#fff"></path><path d="M170.63,336.85h0a.21.21,0,0,1-.19-.22,6.09,6.09,0,0,1,2.26-4.39.2.2,0,0,1,.29.05.21.21,0,0,1-.05.29,5.81,5.81,0,0,0-2.08,4.08A.21.21,0,0,1,170.63,336.85Z" style="fill:#fff"></path><path d="M171.14,338.6a.23.23,0,0,1-.16-.06s-1.74-1.87-5.67-1.33a.21.21,0,0,1-.24-.18.2.2,0,0,1,.18-.23c4.16-.57,6,1.37,6,1.46a.21.21,0,0,1,0,.29A.19.19,0,0,1,171.14,338.6Z" style="fill:#fff"></path><path d="M367.69,309l-4.17,2.42a32.49,32.49,0,0,0,.94-13.48,13,13,0,0,0-1.7-4.5c-.33-.68-2.84-4.89-.63-6.83s7.41,1.92,7.18,12.33A40.38,40.38,0,0,1,367.69,309Z" style="fill:#F8182E"></path><path d="M367.69,309l-4.17,2.42a32.49,32.49,0,0,0,.94-13.48,13,13,0,0,0-1.7-4.5c-.33-.68-2.84-4.89-.63-6.83s7.41,1.92,7.18,12.33A40.38,40.38,0,0,1,367.69,309Z" style="opacity:0.5"></path><path d="M365.75,310.29h-.07a.21.21,0,0,1-.12-.27,35,35,0,0,0,1.48-11.3c-.08-6.91-3.68-10.56-3.71-10.6a.2.2,0,0,1,0-.29.22.22,0,0,1,.3,0s3.76,3.81,3.84,10.88A35.83,35.83,0,0,1,366,310.16.21.21,0,0,1,365.75,310.29Z" style="fill:#fff"></path><path d="M364.46,310.85l-6.89,4s-3.16-.46-2.92-3.43,1.52-3.67-.08-5-2-1.39-1.93-2.67a3.73,3.73,0,0,1,1.34-2.34,2.62,2.62,0,0,0,.74-3.11c-.79-1.55-1.87-3-.27-3.74,1-.42,2.56.1,3.62,1.23a6.86,6.86,0,0,0,2.95,2.2c1,.27,3.11.29,3,2s-.53,2.34-.1,3.11C364.75,304.64,368.14,305.42,364.46,310.85Z" style="fill:#F8182E"></path><path d="M364.46,310.85l-6.89,4s-3.16-.46-2.92-3.43,1.52-3.67-.08-5-2-1.39-1.93-2.67a3.73,3.73,0,0,1,1.34-2.34,2.62,2.62,0,0,0,.74-3.11c-.79-1.55-1.87-3-.27-3.74,1-.42,2.56.1,3.62,1.23a6.86,6.86,0,0,0,2.95,2.2c1,.27,3.11.29,3,2s-.53,2.34-.1,3.11C364.75,304.64,368.14,305.42,364.46,310.85Z" style="opacity:0.2"></path><path d="M361.65,312.71h0a.21.21,0,0,1-.19-.23c0-.1.74-10.19-6.25-16.8a.21.21,0,1,1,.28-.3c7.15,6.75,6.4,17,6.39,17.14A.21.21,0,0,1,361.65,312.71Z" style="fill:#fff"></path><path d="M360.42,303.9h0a.2.2,0,0,1-.19-.22,6.09,6.09,0,0,1,2.26-4.39.22.22,0,0,1,.29,0,.21.21,0,0,1-.05.29,5.83,5.83,0,0,0-2.09,4.08A.2.2,0,0,1,360.42,303.9Z" style="fill:#fff"></path><path d="M360.92,305.66a.23.23,0,0,1-.15-.07s-1.74-1.87-5.68-1.33a.21.21,0,0,1,0-.41c4.16-.57,6,1.38,6,1.46a.22.22,0,0,1-.16.35Z" style="fill:#fff"></path><path d="M263.24,368.29l-4.17,2.42a32.58,32.58,0,0,0,.93-13.48,12.93,12.93,0,0,0-1.69-4.5c-.33-.68-2.84-4.89-.63-6.84s7.41,1.93,7.17,12.33A40.13,40.13,0,0,1,263.24,368.29Z" style="fill:#F8182E"></path><path d="M263.24,368.29l-4.17,2.42a32.58,32.58,0,0,0,.93-13.48,12.93,12.93,0,0,0-1.69-4.5c-.33-.68-2.84-4.89-.63-6.84s7.41,1.93,7.17,12.33A40.13,40.13,0,0,1,263.24,368.29Z" style="opacity:0.5"></path><path d="M261.3,369.62h-.07a.21.21,0,0,1-.13-.27,34.8,34.8,0,0,0,1.49-11.3c-.08-6.9-3.68-10.56-3.72-10.6a.21.21,0,0,1,0-.29.2.2,0,0,1,.3,0S262.92,351,263,358a35.66,35.66,0,0,1-1.51,11.45A.21.21,0,0,1,261.3,369.62Z" style="fill:#fff"></path><path d="M260,370.18l-6.89,4.05s-3.15-.46-2.91-3.43,1.52-3.67-.08-5-2-1.39-1.93-2.67a3.7,3.7,0,0,1,1.34-2.34,2.62,2.62,0,0,0,.74-3.11c-.79-1.55-1.87-3-.27-3.74.95-.43,2.56.1,3.62,1.23a6.8,6.8,0,0,0,2.95,2.2c1,.26,3.1.29,3,2s-.52,2.34-.1,3.11C260.3,364,263.68,364.75,260,370.18Z" style="fill:#F8182E"></path><path d="M260,370.18l-6.89,4.05s-3.15-.46-2.91-3.43,1.52-3.67-.08-5-2-1.39-1.93-2.67a3.7,3.7,0,0,1,1.34-2.34,2.62,2.62,0,0,0,.74-3.11c-.79-1.55-1.87-3-.27-3.74.95-.43,2.56.1,3.62,1.23a6.8,6.8,0,0,0,2.95,2.2c1,.26,3.1.29,3,2s-.52,2.34-.1,3.11C260.3,364,263.68,364.75,260,370.18Z" style="opacity:0.2"></path><path d="M257.2,372h0a.21.21,0,0,1-.19-.23c0-.1.74-10.19-6.26-16.8a.22.22,0,0,1,0-.3.21.21,0,0,1,.29,0c7.15,6.75,6.39,17,6.39,17.14A.21.21,0,0,1,257.2,372Z" style="fill:#fff"></path><path d="M256,363.23h0a.2.2,0,0,1-.19-.22,6.14,6.14,0,0,1,2.25-4.39.2.2,0,0,1,.29.05.21.21,0,0,1,0,.29,5.8,5.8,0,0,0-2.09,4.08A.21.21,0,0,1,256,363.23Z" style="fill:#fff"></path><path d="M256.47,365a.21.21,0,0,1-.15-.07s-1.74-1.87-5.68-1.33a.19.19,0,0,1-.23-.18.2.2,0,0,1,.17-.23c4.17-.57,6,1.38,6,1.46a.21.21,0,0,1,0,.29A.2.2,0,0,1,256.47,365Z" style="fill:#fff"></path></g><g id="freepik--Trees--inject-13"><path d="M405.1,293.17a1.6,1.6,0,0,1-1.6-1.6v-65.8a1.6,1.6,0,1,1,3.2,0v65.8A1.6,1.6,0,0,1,405.1,293.17Z" style="fill:#37474f"></path><path d="M405.1,249.87a1.07,1.07,0,0,1-.93-.54l-9.11-16a1.08,1.08,0,0,1,.4-1.46,1.06,1.06,0,0,1,1.45.4l9.11,16a1.06,1.06,0,0,1-.4,1.46A1,1,0,0,1,405.1,249.87Z" style="fill:#37474f"></path><path d="M404.92,254.2a1,1,0,0,1-.52-.14,1.06,1.06,0,0,1-.4-1.45l12.17-21.36a1.07,1.07,0,1,1,1.86,1.06l-12.18,21.35A1,1,0,0,1,404.92,254.2Z" style="fill:#37474f"></path><circle cx="423.44" cy="212.57" r="23.46" transform="translate(-49.12 178.23) rotate(-22.5)" style="fill:#F8182E"></circle><circle cx="423.44" cy="212.57" r="23.46" transform="translate(-49.12 178.23) rotate(-22.5)" style="opacity:0.30000000000000004"></circle><path d="M418.36,205.94a23.37,23.37,0,0,1,7-16.74c-.64,0-1.29-.08-1.95-.08a23.46,23.46,0,1,0,16.44,40.19A23.46,23.46,0,0,1,418.36,205.94Z" style="fill:#F8182E"></path><path d="M418.36,205.94a23.37,23.37,0,0,1,7-16.74c-.64,0-1.29-.08-1.95-.08a23.46,23.46,0,1,0,16.44,40.19A23.46,23.46,0,0,1,418.36,205.94Z" style="opacity:0.4"></path><circle cx="385.12" cy="219.23" r="16.81" style="fill:#F8182E"></circle><circle cx="385.12" cy="219.23" r="16.81" style="opacity:0.30000000000000004"></circle><path d="M386.94,202.51a16.74,16.74,0,0,0-12.54,3.78c-.06.72-.09,1.44-.09,2.18a30,30,0,0,0,7.44,19.8,2.64,2.64,0,0,1-1.91,4.38h-.06a16.89,16.89,0,0,1-6.14-1.17,16.81,16.81,0,1,0,13.3-29Z" style="fill:#F8182E"></path><path d="M386.94,202.51a16.74,16.74,0,0,0-12.54,3.78c-.06.72-.09,1.44-.09,2.18a30,30,0,0,0,7.44,19.8,2.64,2.64,0,0,1-1.91,4.38h-.06a16.89,16.89,0,0,1-6.14-1.17,16.81,16.81,0,1,0,13.3-29Z" style="opacity:0.4"></path><circle cx="405.1" cy="202.85" r="30.1" transform="translate(114.6 550.5) rotate(-76.72)" style="fill:#F8182E"></circle><path d="M413.68,222.62a30.1,30.1,0,0,1-26.85-43.69A30.09,30.09,0,1,0,432,216.43,30,30,0,0,1,413.68,222.62Z" style="opacity:0.2"></path><path d="M96.9,305.23a1.6,1.6,0,0,1-1.6-1.6v-65.8a1.6,1.6,0,1,1,3.2,0v65.8A1.6,1.6,0,0,1,96.9,305.23Z" style="fill:#37474f"></path><path d="M96.9,261.93a1,1,0,0,1-.92-.54l-9.12-16a1.07,1.07,0,1,1,1.86-1.06l9.11,16a1.06,1.06,0,0,1-.4,1.45A1,1,0,0,1,96.9,261.93Z" style="fill:#37474f"></path><path d="M96.73,266.27a1.07,1.07,0,0,1-.92-1.6L108,243.31a1.07,1.07,0,0,1,1.86,1.06L97.66,265.73A1.09,1.09,0,0,1,96.73,266.27Z" style="fill:#37474f"></path><circle cx="115.25" cy="224.64" r="23.46" transform="translate(-77.19 61.2) rotate(-22.5)" style="fill:#F8182E"></circle><circle cx="115.25" cy="224.64" r="23.46" transform="translate(-77.19 61.2) rotate(-22.5)" style="opacity:0.30000000000000004"></circle><path d="M110.17,218a23.39,23.39,0,0,1,7-16.74c-.65,0-1.29-.08-2-.08a23.46,23.46,0,1,0,16.43,40.19A23.46,23.46,0,0,1,110.17,218Z" style="fill:#F8182E"></path><path d="M110.17,218a23.39,23.39,0,0,1,7-16.74c-.65,0-1.29-.08-2-.08a23.46,23.46,0,1,0,16.43,40.19A23.46,23.46,0,0,1,110.17,218Z" style="opacity:0.4"></path><circle cx="76.93" cy="231.29" r="16.81" style="fill:#F8182E"></circle><circle cx="76.93" cy="231.29" r="16.81" style="opacity:0.30000000000000004"></circle><path d="M78.75,214.57a16.8,16.8,0,0,0-12.55,3.78c0,.72-.08,1.44-.08,2.18a30,30,0,0,0,7.44,19.81,2.63,2.63,0,0,1-1.92,4.37h0a16.69,16.69,0,0,1-6.14-1.17,16.8,16.8,0,1,0,13.3-29Z" style="fill:#F8182E"></path><path d="M78.75,214.57a16.8,16.8,0,0,0-12.55,3.78c0,.72-.08,1.44-.08,2.18a30,30,0,0,0,7.44,19.81,2.63,2.63,0,0,1-1.92,4.37h0a16.69,16.69,0,0,1-6.14-1.17,16.8,16.8,0,1,0,13.3-29Z" style="opacity:0.4"></path><circle cx="96.9" cy="214.91" r="30.1" transform="translate(-134.52 259.84) rotate(-76.72)" style="fill:#F8182E"></circle><path d="M105.49,234.68A30.08,30.08,0,0,1,78.64,191a30.09,30.09,0,1,0,45.12,37.5A30,30,0,0,1,105.49,234.68Z" style="opacity:0.2"></path></g><g id="freepik--Clouds--inject-13"><path d="M352.28,103l7.49,4.26v-2.65c0-.19,0-.38,0-.57s0-.36,0-.53v-.06h0c.27-3.52,2.93-4.86,6.17-3a12,12,0,0,1,3.69,3.54c.73-4.77,4.63-6.49,9.33-3.77,5.23,3,9.46,10.35,9.46,16.39v5.67a2.59,2.59,0,0,0,1.27,2.23l4.4,2.58a6.35,6.35,0,0,1,3.14,5.48,2.61,2.61,0,0,1-3.92,2.26l-40.93-23.64a7.16,7.16,0,0,1-3.57-6.19A2.31,2.31,0,0,1,352.28,103Z" style="fill:#e6e6e6"></path><path d="M313.77,54.91l5.54,3.15v-2c0-.14,0-.28,0-.41s0-.27,0-.4v0h0c.2-2.6,2.17-3.6,4.57-2.21a8.7,8.7,0,0,1,2.73,2.62c.54-3.53,3.42-4.8,6.9-2.79a15.44,15.44,0,0,1,7,12.12v4.2a1.91,1.91,0,0,0,.94,1.64l3.26,1.91A4.71,4.71,0,0,1,347,76.8a1.93,1.93,0,0,1-2.9,1.67L313.86,61a5.28,5.28,0,0,1-2.65-4.58A1.71,1.71,0,0,1,313.77,54.91Z" style="fill:#e6e6e6"></path><path d="M127.67,94.56l-7.49,4.26V96.17c0-.19,0-.38,0-.56s0-.37,0-.54V95h0c-.27-3.51-2.93-4.86-6.18-3a12,12,0,0,0-3.68,3.55c-.74-4.77-4.63-6.5-9.33-3.78-5.23,3-9.46,10.35-9.46,16.39v5.68a2.57,2.57,0,0,1-1.27,2.22l-4.41,2.58a6.36,6.36,0,0,0-3.13,5.48,2.62,2.62,0,0,0,3.92,2.27l40.93-23.65a7.13,7.13,0,0,0,3.57-6.19A2.31,2.31,0,0,0,127.67,94.56Z" style="fill:#e6e6e6"></path></g></svg>